<?xml version="1.0" encoding="utf-8"?>
<!-- Generator: Adobe Illustrator 23.1.0, SVG Export Plug-In . SVG Version: 6.00 Build 0)  -->
<svg version="1.1" id="Capa_1" xmlns="http://www.w3.org/2000/svg" xmlns:xlink="http://www.w3.org/1999/xlink" x="0px" y="0px"
	 viewBox="0 0 31.4 31.4" style="enable-background:new 0 0 31.4 31.4;" xml:space="preserve">
<style type="text/css">
	.st0{fill:#333333;}
</style>
<path class="st0" d="M28.4,0H3C1.3,0,0,1.4,0,3v25.4c0,1.7,1.3,3,3,3h25.4c1.6,0,3-1.3,3-3V3C31.4,1.4,30,0,28.4,0z M15,26.1
	c0,1.1-0.9,2-2,2H4.8c-1.1,0-2-0.9-2-2v-3c0-1.1,0.9-2,2-2H13c1.1,0,2,0.9,2,2V26.1z M15,17.2c0,1.1-0.9,2-2,2H4.8c-1.1,0-2-0.9-2-2
	v-3c0-1.1,0.9-2,2-2H13c1.1,0,2,0.9,2,2V17.2z M15,8.3c0,1.1-0.9,2-2,2H4.8c-1.1,0-2-0.9-2-2v-3c0-1.1,0.9-2,2-2H13c1.1,0,2,0.9,2,2
	V8.3z M28.6,26.1c0,1.1-0.9,2-2,2h-8.1c-1.1,0-2-0.9-2-2v-3c0-1.1,0.9-2,2-2h8.1c1.1,0,2,0.9,2,2V26.1z M28.6,17.2c0,1.1-0.9,2-2,2
	h-8.1c-1.1,0-2-0.9-2-2v-3c0-1.1,0.9-2,2-2h8.1c1.1,0,2,0.9,2,2V17.2z M28.6,8.3c0,1.1-0.9,2-2,2h-8.1c-1.1,0-2-0.9-2-2v-3
	c0-1.1,0.9-2,2-2h8.1c1.1,0,2,0.9,2,2V8.3z"/>
</svg>
