<?xml version="1.0" encoding="utf-8"?>
<!-- Generator: Adobe Illustrator 23.1.0, SVG Export Plug-In . SVG Version: 6.00 Build 0)  -->
<svg version="1.1" id="Capa_1" xmlns="http://www.w3.org/2000/svg" xmlns:xlink="http://www.w3.org/1999/xlink" x="0px" y="0px"
	 viewBox="0 0 348.3 348.3" style="enable-background:new 0 0 348.3 348.3;" xml:space="preserve">
<style type="text/css">
	.st0{fill:#FFFFFF;}
</style>
<circle class="st0" cx="174.2" cy="174.2" r="174.2"/>
<g>
	<path d="M262.6,116.7l-57.5,57.5l57.5,57.5c8.5,8.6,8.5,22.4,0,31c-4.3,4.3-9.9,6.4-15.5,6.4c-5.6,0-11.2-2.1-15.5-6.4l-57.5-57.5
		l-57.5,57.5c-4.3,4.3-9.9,6.4-15.5,6.4c-5.6,0-11.2-2.1-15.5-6.4c-8.5-8.5-8.5-22.4,0-31l57.5-57.5l-57.5-57.5
		c-8.5-8.5-8.5-22.4,0-31c8.5-8.5,22.4-8.5,30.9,0l57.5,57.5l57.5-57.5c8.6-8.5,22.4-8.5,30.9,0C271.1,94.3,271.1,108.1,262.6,116.7
		z"/>
</g>
</svg>
