<?xml version="1.0" encoding="utf-8"?>
<!-- Generator: Adobe Illustrator 23.1.0, SVG Export Plug-In . SVG Version: 6.00 Build 0)  -->
<svg version="1.1" id="Capa_1" xmlns="http://www.w3.org/2000/svg" xmlns:xlink="http://www.w3.org/1999/xlink" x="0px" y="0px"
	 viewBox="0 0 31.4 31.4" style="enable-background:new 0 0 31.4 31.4;" xml:space="preserve">
<style type="text/css">
	.st0{fill:#FFFFFF;}
	.st1{fill:none;stroke:#FFFFFF;stroke-miterlimit:10;}
</style>
<g>
	<path class="st0" d="M24.8,26.8L4.6,6.6C4,6,4,5.2,4.6,4.6l0,0C5.2,4,6,4,6.6,4.6l20.2,20.2c0.6,0.6,0.6,1.4,0,2l0,0
		C26.2,27.4,25.4,27.4,24.8,26.8z"/>
	<path class="st0" d="M4.6,24.8L24.8,4.6c0.6-0.6,1.4-0.6,2,0l0,0c0.6,0.6,0.6,1.4,0,2L6.6,26.8c-0.6,0.6-1.4,0.6-2,0l0,0
		C4,26.2,4,25.4,4.6,24.8z"/>
</g>
<path class="st1" d="M26.6,30.6H4.8c-2.2,0-4-1.8-4-4V4.8c0-2.2,1.8-4,4-4h21.8c2.2,0,4,1.8,4,4v21.8C30.6,28.8,28.8,30.6,26.6,30.6
	z"/>
</svg>
