<?xml version="1.0" encoding="utf-8"?>
<!-- Generator: Adobe Illustrator 23.1.0, SVG Export Plug-In . SVG Version: 6.00 Build 0)  -->
<svg version="1.1" id="Capa_1" xmlns="http://www.w3.org/2000/svg" xmlns:xlink="http://www.w3.org/1999/xlink" x="0px" y="0px"
	 viewBox="0 0 31.4 31.4" style="enable-background:new 0 0 31.4 31.4;" xml:space="preserve">
<style type="text/css">
	.st0{fill:#FFFFFF;}
	.st1{fill:none;stroke:#FFFFFF;stroke-miterlimit:10;}
</style>
<path class="st0" d="M26,8.9H5.4C4.6,8.9,4,8.2,4,7.5l0,0c0-0.8,0.6-1.4,1.4-1.4H26c0.8,0,1.4,0.6,1.4,1.4l0,0
	C27.4,8.2,26.8,8.9,26,8.9z"/>
<path class="st0" d="M26,17.1H5.4c-0.8,0-1.4-0.6-1.4-1.4l0,0c0-0.8,0.6-1.4,1.4-1.4H26c0.8,0,1.4,0.6,1.4,1.4l0,0
	C27.4,16.5,26.8,17.1,26,17.1z"/>
<path class="st0" d="M26,25.3H5.4c-0.8,0-1.4-0.6-1.4-1.4l0,0c0-0.8,0.6-1.4,1.4-1.4H26c0.8,0,1.4,0.6,1.4,1.4l0,0
	C27.4,24.7,26.8,25.3,26,25.3z"/>
<path class="st1" d="M26.6,30.6H4.8c-2.2,0-4-1.8-4-4V4.8c0-2.2,1.8-4,4-4h21.8c2.2,0,4,1.8,4,4v21.8C30.6,28.8,28.8,30.6,26.6,30.6
	z"/>
</svg>
