<?xml version="1.0" encoding="utf-8"?>
<!-- Generator: Adobe Illustrator 23.1.0, SVG Export Plug-In . SVG Version: 6.00 Build 0)  -->
<svg version="1.1" id="圖層_4" xmlns="http://www.w3.org/2000/svg" xmlns:xlink="http://www.w3.org/1999/xlink" x="0px" y="0px"
	 viewBox="0 0 384.5 414.6" style="enable-background:new 0 0 384.5 414.6;" xml:space="preserve">
<style type="text/css">
	.st0{fill:#934117;}
	.st1{fill:#FA6508;}
	.st2{fill:#FF740B;}
	.st3{fill:#E2C5B7;}
	.st4{fill:#CDB4A7;}
	.st5{fill:#231E1C;}
	.st6{fill:#FE830B;}
	.st7{fill:#FF790A;}
	.st8{fill:#FB6412;}
	.st9{fill:#FF6909;}
	.st10{fill:#FA781E;}
	.st11{fill:#FF7413;}
</style>
<polygon class="st0" points="367.5,344.4 334.7,307.5 338.1,267.5 329.8,237.6 334.7,196.8 346.7,181 345.6,163.1 355.3,154.2 
	341.8,145.9 351.1,138.3 340.5,125.3 375.7,22.9 243.6,55.4 243.6,55.4 164.6,55.4 120.9,0 55.2,60.6 30.4,118 27.7,144.2 11.5,150 
	36.6,165.2 17.4,169 39.7,181.7 26,188.2 45.4,207.7 0,324.3 33,411.5 161.8,371.3 286.4,414.6 345.3,411.5 370.6,379.3 
	384.5,353.7 "/>
<g>
	<polygon class="st1" points="199.7,303.7 123.9,324.3 161.8,371.3 	"/>
	<polygon class="st2" points="123.9,324.3 0,324.3 33,411.5 161.8,371.3 	"/>
	<polygon class="st2" points="199.7,303.7 161.8,371.3 340.1,353.7 	"/>
	<polygon class="st3" points="161.8,371.3 340.1,353.7 340.1,383.7 302.4,404.8 	"/>
	<polygon class="st4" points="161.8,371.3 302.4,404.8 340.1,383.7 370.6,379.3 345.3,411.5 286.4,414.6 	"/>
	<polygon class="st5" points="340.1,383.7 370.6,379.3 384.5,353.7 367.5,344.4 345.3,348.1 340.1,353.7 	"/>
	<polygon class="st5" points="185.3,265.5 240.5,277.3 220.9,245.3 	"/>
	<polygon class="st5" points="308.6,267.5 324.1,261.3 312.3,242.2 	"/>
	<polygon class="st6" points="185.3,265.5 199.7,303.7 340.1,353.7 240.5,277.3 	"/>
	<polygon class="st7" points="240.5,277.3 248.8,237.6 262.7,279.4 340.1,353.7 	"/>
	<polygon class="st1" points="240.5,277.3 248.5,240 136.8,242.2 185.3,265.5 220.9,245.3 	"/>
	<polygon class="st6" points="0,324.3 123.9,324.3 199.7,303.7 136.8,242.2 118.2,207.7 45.4,207.7 	"/>
	<polygon class="st2" points="136.8,242.2 199.7,303.7 185.3,265.5 	"/>
	<polygon class="st8" points="293,237.6 308.6,267.5 312.3,242.2 324.1,261.3 329.8,237.6 	"/>
	<polygon class="st6" points="340.1,353.7 345.3,348.1 367.5,344.4 301.9,270.6 243.6,55.4 164.6,55.4 203.9,116.8 262.7,279.4 	"/>
	<polygon class="st9" points="293,237.6 301.9,270.6 334.7,307.5 308.6,267.5 	"/>
	<polygon class="st6" points="308.6,267.5 324.1,261.3 334.7,307.5 	"/>
	<polygon class="st10" points="329.8,237.6 324.1,261.3 334.7,307.5 338.1,267.5 	"/>
	<polygon class="st11" points="260.6,118 334.7,196.8 329.8,237.6 293,237.6 	"/>
	<polygon class="st2" points="203.9,116.8 248.5,240 136.8,242.2 118.2,207.7 	"/>
	<polygon class="st2" points="243.6,55.4 375.7,22.9 260.6,118 	"/>
	<polygon class="st0" points="45.4,207.7 118.2,207.7 203.9,116.8 164.6,55.4 120.9,0 55.2,60.6 30.4,118 27.7,144.2 11.5,150 
		36.6,165.2 17.4,169 39.7,181.7 26,188.2 	"/>
	<polygon class="st0" points="260.6,118 375.7,22.9 340.5,125.3 351.1,138.3 341.8,145.9 355.3,154.2 345.6,163.1 346.7,181 
		334.7,196.8 	"/>
</g>
</svg>
