<svg id="圖層_1" data-name="圖層 1" xmlns="http://www.w3.org/2000/svg" xmlns:xlink="http://www.w3.org/1999/xlink" width="1500" height="50" viewBox="0 0 1500 50"><defs><style>.cls-1{fill:#fff;}.cls-2{fill:#999;}.cls-3{fill:url(#未命名漸層_16);}.cls-4{fill:#2d2d2d;}.cls-5{fill:#e0e0e0;}.cls-6{fill:url(#未命名漸層_6);}.cls-7{fill:url(#未命名漸層_6-2);}.cls-8{fill:#4d4d4d;}.cls-9{fill:#afafaf;}.cls-10{fill:#6b6b6b;}</style><linearGradient id="未命名漸層_16" x1="70.82" y1="25.38" x2="84.18" y2="25.38" gradientUnits="userSpaceOnUse"><stop offset="0" stop-color="#ffc803"/><stop offset="0.36" stop-color="#ffc203"/><stop offset="0.85" stop-color="#ffb103"/><stop offset="1" stop-color="#ffaa03"/></linearGradient><linearGradient id="未命名漸層_6" x1="1000.87" y1="25" x2="1048.87" y2="25" gradientUnits="userSpaceOnUse"><stop offset="0" stop-color="#ffc803"/><stop offset="1" stop-color="#ff3a36"/></linearGradient><linearGradient id="未命名漸層_6-2" x1="950.87" y1="25" x2="998.87" y2="25" xlink:href="#未命名漸層_6"/></defs><title>iconset</title><rect class="cls-1" x="49.5" y="-3" width="50" height="61"/><path class="cls-1" d="M1233.49,27.5l-8-8a1.68,1.68,0,0,0-1.19-.48h0a1.72,1.72,0,0,0-1.19.48l-8,8a1.69,1.69,0,0,0,1.2,2.88,1.67,1.67,0,0,0,1.19-.5l6.8-6.82,6.83,6.82a1.71,1.71,0,0,0,2.38,0,1.69,1.69,0,0,0,.49-1.2A1.71,1.71,0,0,0,1233.49,27.5Z"/><path class="cls-1" d="M1265.1,21.88l8,8a1.7,1.7,0,0,0,1.19.48h0a1.67,1.67,0,0,0,1.19-.49l8-8a1.68,1.68,0,0,0,0-2.38,1.65,1.65,0,0,0-1.19-.49,1.67,1.67,0,0,0-1.19.5l-6.8,6.82-6.82-6.83a1.73,1.73,0,0,0-2.39,0,1.71,1.71,0,0,0-.49,1.19A1.68,1.68,0,0,0,1265.1,21.88Z"/><path class="cls-1" d="M569.4,37h-3.16V16.87a16.2,16.2,0,0,1-3,2.18,21.09,21.09,0,0,1-3.33,1.64V17.63a19.08,19.08,0,0,0,4.64-3,12,12,0,0,0,2.82-3.44h2Z"/><path class="cls-1" d="M590.54,34v3h-17a5.61,5.61,0,0,1,.37-2.19A11.63,11.63,0,0,1,576,31.41a31.17,31.17,0,0,1,4.14-3.9,35,35,0,0,0,5.67-5.46,6.5,6.5,0,0,0,1.48-3.81,4.25,4.25,0,0,0-1.34-3.17,4.87,4.87,0,0,0-3.51-1.29,4.94,4.94,0,0,0-3.66,1.37,5.24,5.24,0,0,0-1.39,3.8l-3.25-.34a8,8,0,0,1,2.52-5.54,8.52,8.52,0,0,1,5.85-1.91,8.17,8.17,0,0,1,5.87,2.05,6.79,6.79,0,0,1,2.16,5.1,7.74,7.74,0,0,1-.63,3,11.65,11.65,0,0,1-2.1,3.15A53.12,53.12,0,0,1,582.89,29q-2.85,2.38-3.66,3.24A11,11,0,0,0,577.9,34Z"/><path class="cls-1" d="M869,37h-3.17V16.87a16.44,16.44,0,0,1-3,2.18,21.58,21.58,0,0,1-3.34,1.64V17.63a19.34,19.34,0,0,0,4.65-3,11.92,11.92,0,0,0,2.81-3.44h2Z"/><path class="cls-1" d="M878.35,23.06A6,6,0,0,1,875.43,21a5.4,5.4,0,0,1-.95-3.2,6.3,6.3,0,0,1,2-4.73,8.52,8.52,0,0,1,10.81,0,6.34,6.34,0,0,1,2.06,4.77,5.22,5.22,0,0,1-.94,3.12,5.91,5.91,0,0,1-2.86,2,6.53,6.53,0,0,1,4.85,6.61,7.39,7.39,0,0,1-2.33,5.55,9.53,9.53,0,0,1-12.31,0,7.49,7.49,0,0,1-2.34-5.63,6.8,6.8,0,0,1,1.28-4.21A6.39,6.39,0,0,1,878.35,23.06ZM876.7,29.6a5.72,5.72,0,0,0,.64,2.62,4.57,4.57,0,0,0,1.91,2,5.58,5.58,0,0,0,2.72.69,5.1,5.1,0,0,0,3.74-1.46,5,5,0,0,0,1.48-3.71,5.1,5.1,0,0,0-1.52-3.78,5.23,5.23,0,0,0-3.81-1.49,5,5,0,0,0-5.16,5.17Zm1-11.9a4,4,0,0,0,1.17,3A4.2,4.2,0,0,0,882,21.85a4.09,4.09,0,0,0,3-1.16,3.78,3.78,0,0,0,1.17-2.82A3.91,3.91,0,0,0,884.91,15a4.09,4.09,0,0,0-3-1.19,4.17,4.17,0,0,0-3,1.16A3.72,3.72,0,0,0,877.72,17.7Z"/><path class="cls-1" d="M918.9,37h-3.16V16.87a16.2,16.2,0,0,1-3,2.18,21.09,21.09,0,0,1-3.33,1.64V17.63a19.08,19.08,0,0,0,4.64-3,12,12,0,0,0,2.82-3.44h2Z"/><path class="cls-1" d="M923.88,31.07l3-.28a5.26,5.26,0,0,0,1.48,3.11,4,4,0,0,0,2.8,1,4.76,4.76,0,0,0,2.55-.67,5.28,5.28,0,0,0,1.8-1.78,10.32,10.32,0,0,0,1.18-3,15.64,15.64,0,0,0,.48-3.86c0-.14,0-.35,0-.64a7.29,7.29,0,0,1-2.59,2.46,7.15,7.15,0,0,1-3.56.94A7.23,7.23,0,0,1,925.62,26a8.53,8.53,0,0,1-2.21-6.12,8.7,8.7,0,0,1,2.31-6.31,7.73,7.73,0,0,1,5.79-2.39,8.28,8.28,0,0,1,4.6,1.35,8.43,8.43,0,0,1,3.16,3.86,19,19,0,0,1,1.08,7.25,23.38,23.38,0,0,1-1.07,7.87,9.19,9.19,0,0,1-3.19,4.45,8.25,8.25,0,0,1-5,1.53,6.82,6.82,0,0,1-7.25-6.4Zm13-11.37a6.2,6.2,0,0,0-1.45-4.32,4.54,4.54,0,0,0-3.49-1.6,4.83,4.83,0,0,0-3.68,1.72A6.4,6.4,0,0,0,926.66,20a5.5,5.5,0,0,0,1.49,4,4.87,4.87,0,0,0,3.66,1.54A4.66,4.66,0,0,0,935.42,24,6,6,0,0,0,936.84,19.7Z"/><path class="cls-1" d="M1422.9,34v3h-17a5.43,5.43,0,0,1,.37-2.19,11.59,11.59,0,0,1,2.08-3.43,32.48,32.48,0,0,1,4.14-3.9,35.62,35.62,0,0,0,5.68-5.46,6.55,6.55,0,0,0,1.47-3.81,4.21,4.21,0,0,0-1.34-3.17,5.48,5.48,0,0,0-7.16.08,5.15,5.15,0,0,0-1.39,3.8l-3.25-.34a8,8,0,0,1,2.51-5.54,8.52,8.52,0,0,1,5.85-1.91,8.15,8.15,0,0,1,5.87,2.05,6.76,6.76,0,0,1,2.17,5.1,7.58,7.58,0,0,1-.64,3,11.65,11.65,0,0,1-2.1,3.15,51.81,51.81,0,0,1-4.88,4.54q-2.84,2.38-3.65,3.24a10.53,10.53,0,0,0-1.34,1.71Z"/><path class="cls-1" d="M1423.17,31.07l3-.28a5.26,5.26,0,0,0,1.48,3.11,4,4,0,0,0,2.79,1,4.79,4.79,0,0,0,2.56-.67,5.47,5.47,0,0,0,1.8-1.78,10.61,10.61,0,0,0,1.18-3,16.12,16.12,0,0,0,.47-3.86c0-.14,0-.35,0-.64a7.21,7.21,0,0,1-2.59,2.46,7.1,7.1,0,0,1-3.56.94,7.21,7.21,0,0,1-5.41-2.32,8.49,8.49,0,0,1-2.22-6.12,8.66,8.66,0,0,1,2.32-6.31,7.73,7.73,0,0,1,5.79-2.39,8.25,8.25,0,0,1,4.59,1.35,8.45,8.45,0,0,1,3.17,3.86,19,19,0,0,1,1.08,7.25,23.63,23.63,0,0,1-1.07,7.87,9.25,9.25,0,0,1-3.19,4.45,8.28,8.28,0,0,1-5,1.53,6.8,6.8,0,0,1-7.24-6.4Zm12.95-11.37a6.15,6.15,0,0,0-1.45-4.32,4.53,4.53,0,0,0-3.49-1.6,4.81,4.81,0,0,0-3.67,1.72A6.4,6.4,0,0,0,1426,20a5.49,5.49,0,0,0,1.48,4,4.88,4.88,0,0,0,3.67,1.54,4.67,4.67,0,0,0,3.61-1.54A6,6,0,0,0,1436.12,19.7Z"/><path class="cls-1" d="M1373,34v3h-17a5.61,5.61,0,0,1,.37-2.19,11.59,11.59,0,0,1,2.08-3.43,32.48,32.48,0,0,1,4.14-3.9,35.62,35.62,0,0,0,5.68-5.46,6.57,6.57,0,0,0,1.48-3.81,4.22,4.22,0,0,0-1.35-3.17,5.48,5.48,0,0,0-7.16.08,5.15,5.15,0,0,0-1.39,3.8l-3.25-.34a8,8,0,0,1,2.51-5.54,8.53,8.53,0,0,1,5.85-1.91,8.19,8.19,0,0,1,5.88,2.05,6.79,6.79,0,0,1,2.16,5.1,7.58,7.58,0,0,1-.64,3,11.65,11.65,0,0,1-2.1,3.15,51.41,51.41,0,0,1-4.87,4.54q-2.85,2.38-3.66,3.24a11.11,11.11,0,0,0-1.34,1.71Z"/><path class="cls-1" d="M1377.63,23.06a5.94,5.94,0,0,1-2.91-2.06,5.34,5.34,0,0,1-1-3.2,6.26,6.26,0,0,1,2-4.73,8.52,8.52,0,0,1,10.81,0,6.34,6.34,0,0,1,2.06,4.77,5.28,5.28,0,0,1-.94,3.12,5.91,5.91,0,0,1-2.86,2,6.91,6.91,0,0,1,3.61,2.49,6.84,6.84,0,0,1,1.24,4.12,7.39,7.39,0,0,1-2.34,5.55,9.51,9.51,0,0,1-12.3,0,7.49,7.49,0,0,1-2.34-5.63,6.86,6.86,0,0,1,1.27-4.21A6.39,6.39,0,0,1,1377.63,23.06ZM1376,29.6a5.85,5.85,0,0,0,.64,2.62,4.63,4.63,0,0,0,1.91,2,5.62,5.62,0,0,0,2.73.69,5.1,5.1,0,0,0,3.74-1.46,5,5,0,0,0,1.48-3.71,5.1,5.1,0,0,0-1.52-3.78,5.26,5.26,0,0,0-3.81-1.49A5,5,0,0,0,1376,29.6Zm1-11.9a4,4,0,0,0,1.18,3,4.17,4.17,0,0,0,3.06,1.16,4.09,4.09,0,0,0,3-1.16,3.81,3.81,0,0,0,1.16-2.82,3.94,3.94,0,0,0-1.2-2.92,4.42,4.42,0,0,0-6,0A3.73,3.73,0,0,0,1377,17.7Z"/><path class="cls-1" d="M1323,34v3h-17a5.61,5.61,0,0,1,.37-2.19,11.59,11.59,0,0,1,2.08-3.43,32.48,32.48,0,0,1,4.14-3.9,35.18,35.18,0,0,0,5.68-5.46,6.57,6.57,0,0,0,1.48-3.81,4.22,4.22,0,0,0-1.35-3.17,4.83,4.83,0,0,0-3.5-1.29,4.91,4.91,0,0,0-3.66,1.37,5.15,5.15,0,0,0-1.39,3.8l-3.25-.34a8,8,0,0,1,2.51-5.54,8.56,8.56,0,0,1,5.86-1.91,8.17,8.17,0,0,1,5.87,2.05,6.79,6.79,0,0,1,2.16,5.1,7.74,7.74,0,0,1-.63,3,12.14,12.14,0,0,1-2.1,3.15A53.12,53.12,0,0,1,1315.4,29q-2.85,2.38-3.66,3.24a10.44,10.44,0,0,0-1.33,1.71Z"/><path class="cls-1" d="M1323.05,14.64v-3h16.68v2.46a35.07,35.07,0,0,0-4.88,7,42.37,42.37,0,0,0-3.73,8.93A33.07,33.07,0,0,0,1329.9,37h-3.25a31.43,31.43,0,0,1,1.2-7.34,38.12,38.12,0,0,1,3.28-8.31,35.13,35.13,0,0,1,4.54-6.74Z"/><path class="cls-1" d="M1456.22,30.23l3.16-.42a7,7,0,0,0,1.86,3.87,4.53,4.53,0,0,0,3.19,1.19,5.09,5.09,0,0,0,3.77-1.55,5.23,5.23,0,0,0,1.54-3.83,4.87,4.87,0,0,0-5-5,9.25,9.25,0,0,0-2.23.35l.35-2.77.51,0A6.54,6.54,0,0,0,1467,21a3.62,3.62,0,0,0,1.62-3.25,3.88,3.88,0,0,0-1.18-2.89,4.2,4.2,0,0,0-3-1.14,4.33,4.33,0,0,0-3.08,1.16,5.78,5.78,0,0,0-1.58,3.48l-3.16-.56a8.08,8.08,0,0,1,2.63-4.93,7.61,7.61,0,0,1,5.12-1.75,8.46,8.46,0,0,1,3.88.9,6.6,6.6,0,0,1,2.72,2.47,6.43,6.43,0,0,1,.94,3.33,5.44,5.44,0,0,1-.9,3,6.17,6.17,0,0,1-2.65,2.18,6,6,0,0,1,3.55,2.18,6.7,6.7,0,0,1,1.26,4.16,7.6,7.6,0,0,1-2.46,5.72,8.62,8.62,0,0,1-6.22,2.35,8.07,8.07,0,0,1-5.63-2A7.79,7.79,0,0,1,1456.22,30.23Z"/><path class="cls-1" d="M1472.62,24.32a23.79,23.79,0,0,1,.94-7.35,9.16,9.16,0,0,1,2.8-4.3,7.11,7.11,0,0,1,4.66-1.51,7.67,7.67,0,0,1,3.64.83,6.94,6.94,0,0,1,2.59,2.41,13.07,13.07,0,0,1,1.6,3.83,25.86,25.86,0,0,1,.58,6.09,23.73,23.73,0,0,1-.93,7.33,9.19,9.19,0,0,1-2.79,4.3,7.85,7.85,0,0,1-10.54-1.15Q1472.62,31.59,1472.62,24.32Zm3.25,0q0,6.34,1.49,8.45a4.24,4.24,0,0,0,7.33,0c1-1.4,1.48-4.22,1.48-8.44s-.49-7.06-1.48-8.45a4.39,4.39,0,0,0-3.7-2.09,4.06,4.06,0,0,0-3.48,1.84Q1475.88,18,1475.87,24.32Z"/><path class="cls-2" d="M16.07,21.84A3.17,3.17,0,1,0,19.23,25,3.17,3.17,0,0,0,16.07,21.84Zm9.48,0A3.17,3.17,0,1,0,28.72,25,3.17,3.17,0,0,0,25.55,21.84Zm9.49,0A3.17,3.17,0,1,0,38.2,25,3.17,3.17,0,0,0,35,21.84ZM24.5,49.25a24.25,24.25,0,0,1,0-48.5,24.25,24.25,0,0,1,17.15,41.4A24.13,24.13,0,0,1,24.5,49.25Z"/><path class="cls-1" d="M116.07,21.84A3.17,3.17,0,1,0,119.23,25,3.17,3.17,0,0,0,116.07,21.84Zm9.48,0A3.17,3.17,0,1,0,128.72,25,3.17,3.17,0,0,0,125.55,21.84Zm9.49,0A3.17,3.17,0,1,0,138.2,25,3.17,3.17,0,0,0,135,21.84ZM124.5,49.25a24.25,24.25,0,0,1,0-48.5,24.25,24.25,0,0,1,17.15,41.4A24.13,24.13,0,0,1,124.5,49.25Z"/><polygon class="cls-3" points="84.18 25.38 70.82 15.23 70.82 35.52 70.82 35.53 70.83 35.53 84.18 25.38"/><path class="cls-4" d="M297.38,17.63c.19,2.51-.22,5.52-1.89,5.67-2.7.24-1.29-2.74-1.26-4.53a8.77,8.77,0,0,0-8.69-8.83c-1.23,0-4.09.84-3.65-1.76.2-1.15,1.17-1.12,2.14-1.25A11.48,11.48,0,0,1,297.38,17.63Z"/><path class="cls-4" d="M282,35.78a7.51,7.51,0,0,0,2-4.91c0-6.26-7.9-8.57-14.1-8.07a17.59,17.59,0,0,0-8.07,2.4c-1.94,1.13-4.22,3-4.79,5.79-1.27,6.29,5.57,9.24,10.59,9.58C273.45,41,279.26,38.9,282,35.78Zm3.4-12.09c3.15,1.72,6.92,2.57,6.3,7.68a9.88,9.88,0,0,1-1.64,3.91c-5.32,7.44-21.36,10.57-31.37,4.92-3.36-1.91-6.83-4.68-6.29-10.21.46-4.77,3.66-8.46,6.8-11.59,3-3,6.15-5.34,10.45-6.43,4.67-1.18,6,2.71,4.79,6.55,2.7-.18,8.42-3.2,11-.26C286.54,19.57,286.11,21.89,285.42,23.69Z"/><path class="cls-4" d="M291.22,17.63c.26,1.92-.29,3.58-1.39,3.65-1.83.12-1.15-1.26-1.26-2.9a3.44,3.44,0,0,0-1.64-2.51c-1.44-.67-3.65.49-3.65-1.51,0-1.48,1.29-1.33,2-1.39A5.43,5.43,0,0,1,291.22,17.63Z"/><path class="cls-4" d="M267.78,35.9c2.34-.56,2.67-5-.89-4.15C263.92,32.44,264.5,36.69,267.78,35.9Zm2.27-4.27a1,1,0,0,0,1.76-.51C271.68,30.21,270,30.35,270.05,31.63Zm6.43-1.39c2.68,8.11-11.3,11.89-13.86,4.91-1.72-4.66,2.39-8.37,6.68-8.83C273,26,275.67,27.81,276.48,30.24Z"/><path class="cls-4" d="M189.07,38.46a.89.89,0,0,1-.9.89h-4.44a.89.89,0,0,1-.89-.89V30.32c0-1.22.35-5.32-3.18-5.32-2.73,0-3.29,2.81-3.4,4.07v9.39a.89.89,0,0,1-.9.89h-4.29a.89.89,0,0,1-.9-.89V21a.9.9,0,0,1,.9-.9h4.29a.9.9,0,0,1,.9.9v1.51c1-1.52,2.52-2.7,5.74-2.7,7.11,0,7.07,6.65,7.07,10.3Zm-24.68-20a3.94,3.94,0,1,1,3.93-3.94A3.93,3.93,0,0,1,164.39,18.42Zm3,20a1,1,0,0,1-1,1h-4.14a1,1,0,0,1-1-1V21a1,1,0,0,1,1-1h4.14a1,1,0,0,1,1,1ZM189.6,6.48H159.34A3.35,3.35,0,0,0,156,9.82V40.08a3.34,3.34,0,0,0,3.34,3.34H189.6A3.34,3.34,0,0,0,193,40.08V9.82A3.35,3.35,0,0,0,189.6,6.48Z"/><path class="cls-4" d="M246.28,10.83a17.94,17.94,0,0,1-3.05,1,9.49,9.49,0,0,0,2.51-4,.5.5,0,0,0-.73-.58,17.43,17.43,0,0,1-4.66,1.92,1,1,0,0,1-.29,0,1.25,1.25,0,0,1-.82-.31,9.5,9.5,0,0,0-6.31-2.38,10.11,10.11,0,0,0-3,.46,9.21,9.21,0,0,0-6.23,6.66,10,10,0,0,0-.23,3.52.33.33,0,0,1-.09.26.32.32,0,0,1-.26.12h0a25,25,0,0,1-17.2-9.19.5.5,0,0,0-.82.07,9.55,9.55,0,0,0,1.56,11.6,8.51,8.51,0,0,1-2.18-.85.5.5,0,0,0-.74.43,9.53,9.53,0,0,0,5.57,8.8h-.2a7.92,7.92,0,0,1-1.61-.16.51.51,0,0,0-.57.65,9.58,9.58,0,0,0,7.55,6.5,17.6,17.6,0,0,1-9.86,3h-1.1a.73.73,0,0,0-.71.55.75.75,0,0,0,.36.84,26.21,26.21,0,0,0,13.16,3.55A26.44,26.44,0,0,0,227.52,41a24.87,24.87,0,0,0,8.23-6.16,27.1,27.1,0,0,0,5-8.44,26.67,26.67,0,0,0,1.71-9.24V17a1.6,1.6,0,0,1,.61-1.26,19,19,0,0,0,3.79-4.17A.5.5,0,0,0,246.28,10.83Z"/><path class="cls-4" d="M412,15.64a2.92,2.92,0,0,0-2.09-.87,2.87,2.87,0,0,0-2.11.89L395.12,28.32V17.73a3,3,0,0,0-6,0V35.54a1.62,1.62,0,0,0,0,.31v0a1.36,1.36,0,0,0,0,.27s0,.08,0,.12,0,.1,0,.16,0,.08,0,.13l.06.16s0,.06,0,.1a.85.85,0,0,0,.08.17l.07.08.1.16.06.08c.06.09.12.15.18.23s.09.1.15.14l0,0a1.21,1.21,0,0,0,.2.19l.11.06.16.12.1.06a1.86,1.86,0,0,0,.19.11s.06,0,.1,0a3.52,3.52,0,0,0,.61.18.2.2,0,0,1,.11,0,.82.82,0,0,0,.22,0h.45l.21,0h.06l.08,0,.1,0,.19,0,.08,0,.25-.08.06,0,.18-.08s.06,0,.09-.05a.7.7,0,0,0,.16-.1l.08-.06s.1-.06.14-.1l.09-.06.14-.13.06-.06L401,30.89l6.76,6.78a3,3,0,0,0,4.22,0,2.93,2.93,0,0,0,0-4.18l-6.86-6.87L412,19.8A2.9,2.9,0,0,0,412,15.64Z"/><path class="cls-4" d="M347.25,32.75a6.11,6.11,0,1,1,6.17-6.11A6.14,6.14,0,0,1,347.25,32.75Zm0-18.14a12,12,0,1,0,12.14,12A12.08,12.08,0,0,0,347.25,14.61Z"/><path class="cls-4" d="M331.72,14.59a3,3,0,0,0-2.12.88l-6.9,7-6.91-7a3,3,0,0,0-4.23,0,3,3,0,0,0,0,4.18l8.18,8.24v7.71a3,3,0,0,0,6,0V27.85l8.18-8.24a2.93,2.93,0,0,0,0-4.18A3.14,3.14,0,0,0,331.72,14.59Z"/><path class="cls-4" d="M381.92,14.77a3,3,0,0,0-3,3v9.75c0,.89-.25,5.27-5.07,5.27h0c-4.82,0-5.06-4.38-5.06-5.27V17.73a3,3,0,0,0-6,0v9.75c0,5.56,3.8,11.18,11.05,11.18h0c7.26,0,11.05-5.62,11.05-11.18V17.73A3,3,0,0,0,381.92,14.77Z"/><path class="cls-4" d="M438.5,17.73a3,3,0,0,0-6,0V27.5c0,.89-.24,5.25-5.06,5.25h0c-4.78,0-5-4.36-5-5.25V17.73a3,3,0,0,0-6,0V27.5c0,5.56,3.79,11.18,11,11.18h0c7.24,0,11-5.62,11-11.18V17.73Z"/><path class="cls-5" d="M500.87,11.59V1h10.59V11.59Zm12.47,0V1h10.59V11.59Zm12.47,0V1H536.4V11.59Zm12.47,0V1h10.59V11.59ZM500.87,24.06V13.47h10.59V24.06Zm12.47,0V13.47h10.59V24.06Zm12.47,0V13.47H536.4V24.06Zm12.47,0V13.47h10.59V24.06ZM500.87,36.53V25.94h10.59V36.53Zm12.47,0V25.94h10.59V36.53Zm12.47,0V25.94H536.4V36.53Zm12.47,0V25.94h10.59V36.53ZM500.87,49V38.41h10.59V49Zm12.47,0V38.41h10.59V49Zm12.47,0V38.41H536.4V49Zm12.47,0V38.41h10.59V49Z"/><path class="cls-5" d="M450.87,23.05V1h22.05V23.05Zm25.95,0V1h22.05V23.05ZM450.87,49V27h22.05V49Zm25.95,0V27h22.05V49Z"/><path class="cls-6" d="M1000.87,11.59V1h10.59V11.59Zm12.47,0V1h10.59V11.59Zm12.47,0V1h10.59V11.59Zm12.47,0V1h10.59V11.59Zm-37.41,12.47V13.47h10.59V24.06Zm12.47,0V13.47h10.59V24.06Zm12.47,0V13.47h10.59V24.06Zm12.47,0V13.47h10.59V24.06Zm-37.41,12.47V25.94h10.59V36.53Zm12.47,0V25.94h10.59V36.53Zm12.47,0V25.94h10.59V36.53Zm12.47,0V25.94h10.59V36.53ZM1000.87,49V38.41h10.59V49Zm12.47,0V38.41h10.59V49Zm12.47,0V38.41h10.59V49Zm12.47,0V38.41h10.59V49Z"/><path class="cls-7" d="M950.87,23.05V1h22V23.05Zm26,0V1h22V23.05Zm-26,26V27h22V49Zm26,0V27h22V49Z"/><path class="cls-8" d="M758.08,17.13H758a2.62,2.62,0,0,0-2.62,2.61V31.12A2.63,2.63,0,0,0,758,33.74h.11a2.63,2.63,0,0,0,2.62-2.62V19.74A2.63,2.63,0,0,0,758.08,17.13Z"/><path class="cls-8" d="M762,35.52a2.4,2.4,0,0,0,2.4,2.39h2.57v6.15a2.61,2.61,0,0,0,2.61,2.62h.11a2.63,2.63,0,0,0,2.62-2.62V37.91h3.59v6.15a2.62,2.62,0,0,0,2.62,2.62h.11a2.62,2.62,0,0,0,2.61-2.62V37.91h2.57a2.4,2.4,0,0,0,2.4-2.39v-18H762Z"/><path class="cls-8" d="M779.69,12.28a1.17,1.17,0,1,1,1.17-1.17A1.17,1.17,0,0,1,779.69,12.28Zm-11.27,0a1.17,1.17,0,1,1,1.17-1.17A1.17,1.17,0,0,1,768.42,12.28Zm11.67-5.63,2-3.15a.44.44,0,0,0-.13-.6.43.43,0,0,0-.6.13l-2.11,3.25a14,14,0,0,0-10.46,0L766.72,3a.44.44,0,0,0-.61-.13.42.42,0,0,0-.12.6l2,3.15a10.32,10.32,0,0,0-6.16,9.1c0,.24,0,.47,0,.71h24.31c0-.24,0-.47,0-.71A10.33,10.33,0,0,0,780.09,6.65Z"/><path class="cls-8" d="M790,17.13h.11a2.62,2.62,0,0,1,2.62,2.62V31.12a2.62,2.62,0,0,1-2.62,2.62H790a2.61,2.61,0,0,1-2.61-2.61V19.74A2.62,2.62,0,0,1,790,17.13Z"/><path class="cls-8" d="M730.47,9.83a9.67,9.67,0,0,0,2.28-7,9.83,9.83,0,0,0-6.46,3.32A9.18,9.18,0,0,0,724,12.93,8.12,8.12,0,0,0,730.47,9.83ZM736,26.13a9.91,9.91,0,0,1,4.73-8.35,10.24,10.24,0,0,0-8-4.35c-3.41-.34-6.66,2-8.39,2s-4.41-2-7.24-1.9A10.72,10.72,0,0,0,708,19c-3.87,6.71-1,16.66,2.78,22.1,1.84,2.66,4,5.65,6.92,5.55s3.83-1.8,7.19-1.8,4.3,1.8,7.24,1.74,4.88-2.71,6.71-5.39a24.22,24.22,0,0,0,3-6.23A9.7,9.7,0,0,1,736,26.13Z"/><path class="cls-8" d="M636.82,12.17c0,.37-.09,1-.13,1.45l-.09,1.05c0,.42-.09,1-.12,1.33s-.06.58-.06.58h-18.7a.68.68,0,0,0-.7.76l.32,3.68a.86.86,0,0,0,.84.77h17.1a.61.61,0,0,1,.62.68c0,.38-.09,1-.13,1.45l-1.06,11.87c0,.43-.08,1-.1,1.2s-.38.52-.78.64l-8.94,2.47-.75.21-.75-.2-8.95-2.48a1.21,1.21,0,0,1-.81-1l-.58-6.46a.69.69,0,0,1,.7-.76h3.58a.84.84,0,0,1,.83.76l.23,2.53a1.19,1.19,0,0,0,.81,1l4.18,1.13.75.2.74-.2,4.2-1.14a1.18,1.18,0,0,0,.81-1l.45-5.07a.69.69,0,0,0-.7-.77h-16.1a.85.85,0,0,1-.84-.76l-1.12-12.5c0-.42-.09-1.08-.13-1.45a.66.66,0,0,1,.71-.68h24A.65.65,0,0,1,636.82,12.17ZM604.58,3a.7.7,0,0,0-.7.77l3.57,40a1.21,1.21,0,0,0,.81,1l15.12,4.2a3.36,3.36,0,0,0,1.48,0L640,44.71a1.18,1.18,0,0,0,.81-1l3.57-40a.69.69,0,0,0-.7-.77Z"/><path class="cls-8" d="M670.21,43l-17.53-2.4V26.22h17.53Zm26.31-16.8V46.68l-23.39-3.29V26.22Zm-23.39-20,23.39-3.4V23.29H673.13ZM652.69,23.29l0-14.25,17.54-2.39V23.29Z"/><path class="cls-9" d="M568.87,22a3.74,3.74,0,0,0,1-.17,3.15,3.15,0,0,0,1-.53,2.84,2.84,0,0,0,.8-.94A2.9,2.9,0,0,0,572,19a6.77,6.77,0,0,1,.1-1.07,2.48,2.48,0,0,1,.42-1,2.53,2.53,0,0,1,1-.78,4,4,0,0,1,1.69-.3,7.61,7.61,0,0,1,1,.07,3,3,0,0,1,1.12.38,2.5,2.5,0,0,1,.91.94,3.41,3.41,0,0,1,.37,1.74,3.06,3.06,0,0,1-.48,1.76A5.94,5.94,0,0,1,576.88,22c-.5.38-1,.75-1.58,1.09a9.87,9.87,0,0,0-1.59,1.24A6.09,6.09,0,0,0,572.49,26,5.31,5.31,0,0,0,572,28.4a3.53,3.53,0,0,0,.14.89,2.54,2.54,0,0,0,.48.9,2.83,2.83,0,0,0,.93.71,3.41,3.41,0,0,0,1.49.29,3,3,0,0,0,2.21-.74,2.63,2.63,0,0,0,.71-1.88,1.74,1.74,0,0,1,.17-.8,3.78,3.78,0,0,1,.29-.51,4.42,4.42,0,0,1,.9-.86l1.31-1c.47-.35,1-.74,1.46-1.16a10.56,10.56,0,0,0,1.36-1.4,6.73,6.73,0,0,0,1-1.67,5,5,0,0,0,.39-2,9.71,9.71,0,0,0-.61-3.52,7.44,7.44,0,0,0-1.82-2.75,8.46,8.46,0,0,0-3-1.79,12.39,12.39,0,0,0-4.19-.64,12.14,12.14,0,0,0-3.63.48A9,9,0,0,0,569,12.24,7.26,7.26,0,0,0,567.29,14a9.3,9.3,0,0,0-1,1.95,9.44,9.44,0,0,0-.49,1.83,11.38,11.38,0,0,0-.13,1.42,2.64,2.64,0,0,0,.89,2A3.4,3.4,0,0,0,568.87,22Z"/><path class="cls-9" d="M575.21,33.51a3.8,3.8,0,0,0-2.6.82,3.44,3.44,0,0,0-.9,2.64,3.5,3.5,0,0,0,.9,2.65,3.67,3.67,0,0,0,2.6.86,3.59,3.59,0,0,0,2.56-.86,3.48,3.48,0,0,0,.91-2.65,3.55,3.55,0,0,0-.86-2.64A3.69,3.69,0,0,0,575.21,33.51Z"/><path class="cls-1" d="M832.62,46.41a2.45,2.45,0,0,1-1.76-.73l-18-18a2.51,2.51,0,0,1,0-3.54l18.9-18.9a2.5,2.5,0,0,1,3.54,3.54L818.13,25.89l16.26,16.25a2.5,2.5,0,0,1-1.77,4.27Z"/><g id="Group_4213" data-name="Group 4213"><path id="twitter" class="cls-10" d="M1196.78,10.49a18.38,18.38,0,0,1-3.14,1,9.77,9.77,0,0,0,2.58-4.1h0a.52.52,0,0,0-.33-.65.51.51,0,0,0-.42,0h0a18.15,18.15,0,0,1-4.8,2,1.45,1.45,0,0,1-.3,0,1.31,1.31,0,0,1-.84-.32,9.73,9.73,0,0,0-6.48-2.45,10.56,10.56,0,0,0-3.11.47,9.5,9.5,0,0,0-6.4,6.85,10.44,10.44,0,0,0-.24,3.61.33.33,0,0,1-.08.27.41.41,0,0,1-.27.13h0A25.75,25.75,0,0,1,1155.25,8h0a.51.51,0,0,0-.72-.08.53.53,0,0,0-.12.14h0A9.83,9.83,0,0,0,1156,20a9.13,9.13,0,0,1-2.24-.87h0a.52.52,0,0,0-.69.2.55.55,0,0,0-.07.25h0a9.83,9.83,0,0,0,5.73,9h-.21a9.24,9.24,0,0,1-1.66-.16h0a.51.51,0,0,0-.6.41.53.53,0,0,0,0,.25h0a9.81,9.81,0,0,0,7.76,6.68,18,18,0,0,1-10.13,3.09h-1.13a.76.76,0,0,0-.74.57.78.78,0,0,0,.37.86,27,27,0,0,0,13.52,3.64,27.26,27.26,0,0,0,11.56-2.45,25.55,25.55,0,0,0,8.45-6.33,27.62,27.62,0,0,0,5.18-8.67,27.28,27.28,0,0,0,1.76-9.49v-.15a1.65,1.65,0,0,1,.63-1.3,19.32,19.32,0,0,0,3.89-4.28h0a.51.51,0,0,0-.63-.75Z"/></g><g id="Group_4211" data-name="Group 4211"><path id="wechat" class="cls-10" d="M1142.93,39.62a11,11,0,0,0,4.87-8.77c0-6.43-6.24-11.7-14-11.7s-14,5.27-14,11.7,6.24,11.7,14,11.7a19.41,19.41,0,0,0,4.68-.58h.39a1.19,1.19,0,0,1,.78.19l3.12,1.75h.2a.42.42,0,0,0,.39-.39v-.39l-.59-2.34V40.4C1142.54,40.21,1142.73,39.82,1142.93,39.62ZM1118,6.09c-9.36,0-17,6.24-17,14a13.7,13.7,0,0,0,5.84,10.72,1.42,1.42,0,0,1,.39,1v.39l-.78,2.93v.39a.52.52,0,0,0,.45.58h.14l.39-.19,3.71-2.15a1.49,1.49,0,0,1,1-.19h.58a16.87,16.87,0,0,0,5.46.78h1a7.63,7.63,0,0,1-.78-3.51c0-7,6.82-12.87,15.4-12.87h1C1133.37,11.16,1126.35,6.09,1118,6.09Zm11.11,22.81a1.95,1.95,0,1,1,2-1.95h0a2.09,2.09,0,0,1-2,1.95Zm9.36,0a1.95,1.95,0,1,1,2-1.95,2.09,2.09,0,0,1-2,1.95ZM1112.32,18a2.34,2.34,0,1,1-.15-4.68h.15a2.26,2.26,0,0,1,2.34,2.16v.18A2.52,2.52,0,0,1,1112.32,18Zm11.31,0a2.34,2.34,0,0,1,0-4.68,2.26,2.26,0,0,1,2.34,2.16v.18a2.52,2.52,0,0,1-2.35,2.34Z"/></g><g id="Group_4212" data-name="Group 4212"><path id="Subtraction_40" data-name="Subtraction 40" class="cls-10" d="M1073.88,43.91h0a1.05,1.05,0,0,1-.81-.37,1,1,0,0,1-.27-.84l.41-3.75a1.08,1.08,0,0,0-1-1.2h0a25.3,25.3,0,0,1-3.56-.64,23.48,23.48,0,0,1-3.28-1.12,21.81,21.81,0,0,1-3-1.55,20,20,0,0,1-2.56-1.93,17.89,17.89,0,0,1-2.09-2.26,14.77,14.77,0,0,1-1.58-2.54,13.65,13.65,0,0,1-1-2.77,12.8,12.8,0,0,1,.06-6.15,13.93,13.93,0,0,1,1.16-3,15.18,15.18,0,0,1,1.85-2.7,17.09,17.09,0,0,1,2.44-2.37,19.6,19.6,0,0,1,3-1.94,22.07,22.07,0,0,1,3.39-1.46,25,25,0,0,1,11.7-.94,24.08,24.08,0,0,1,3.66.88,22.08,22.08,0,0,1,3.33,1.39,21.08,21.08,0,0,1,2.92,1.84,17.86,17.86,0,0,1,2.44,2.24,15.4,15.4,0,0,1,1.89,2.58,13.67,13.67,0,0,1,1.26,2.85,12.86,12.86,0,0,1,.56,3.08c0,.51,0,1,0,1.55a12.13,12.13,0,0,1-.16,1.21,13.37,13.37,0,0,1-1.53,4.38c-.16.29-.63,1-1.25,1.87s-1.14,1.58-1.4,1.88a30.77,30.77,0,0,1-2.6,2.76,38.71,38.71,0,0,1-3.49,2.91q-2.17,1.61-4.49,3c-1.73,1-3.61,2-5.61,3A1,1,0,0,1,1073.88,43.91Zm9.18-26.42a1,1,0,0,0-1,1v7.72a1,1,0,0,0,1,1h4.09a1,1,0,1,0,0-2h-3.07V23.39h3.07a1,1,0,1,0,0-2h-3.07V19.53h3.07a1,1,0,1,0,0-2Zm-13.31,0a.8.8,0,0,0-.8.8v8.16a.8.8,0,0,0,.8.8h.45a.8.8,0,0,0,.8-.8h0V18.29a.8.8,0,0,0-.8-.8Zm-6.88,0a1,1,0,0,0-1,1v7.72a1,1,0,0,0,1,1H1067a1,1,0,0,0,0-2h-3.07v-6.7a1,1,0,0,0-1-1Zm11.71,4.05h0l4.2,5.44a1,1,0,0,0,.7.28h0a1,1,0,0,0,.72-.32,1.11,1.11,0,0,0,.3-.75V18.51a1,1,0,0,0-2,0v4.71s-4.07-5.31-4.13-5.39a1,1,0,0,0-.76-.34h0a1,1,0,0,0-.71.33,1.05,1.05,0,0,0-.29.73v7.68a1,1,0,0,0,2,0V21.54Z"/></g></svg>