<?xml version="1.0" encoding="utf-8"?>
<!-- Generator: Adobe Illustrator 23.1.0, SVG Export Plug-In . SVG Version: 6.00 Build 0)  -->
<svg version="1.1" id="Capa_1" xmlns="http://www.w3.org/2000/svg" xmlns:xlink="http://www.w3.org/1999/xlink" x="0px" y="0px"
	 viewBox="0 0 31.4 31.4" style="enable-background:new 0 0 31.4 31.4;" xml:space="preserve">
<style type="text/css">
	.st0{fill:#FFFFFF;}
</style>
<g>
	<g>
		<path class="st0" d="M28.8,7l-0.5,0.1l-2.5,0.2l-0.7,1.1l-0.5-0.2l-2-1.8l-0.3-0.9l-0.4-1l-1.3-1.1l-1.5-0.3l0,0.7l1.4,1.4
			l0.7,0.8l-0.8,0.4l-0.6-0.2l-1-0.4l0-0.8l-1.3-0.5l-0.4,1.8l-1.3,0.3l0.1,1l1.7,0.3L18,6.4l1.4,0.2L20,7h1l0.7,1.4l1.9,1.9
			l-0.1,0.7L22,10.9l-2.6,1.3l-1.9,2.2l-0.2,1h-0.7l-1.3-0.6l-1.2,0.6l0.3,1.3l0.5-0.6l0.9,0l-0.1,1.2l0.8,0.2l0.8,0.9l1.3-0.4
			l1.4,0.2l1.7,0.4l0.8,0.1l1.4,1.6l2.7,1.6l-1.8,3.4l-1.9,0.9l-0.7,1.9l-2.7,1.8l-0.3,1c6.9-1.7,12-7.9,12-15.3
			C31.4,12.5,30.4,9.5,28.8,7z"/>
		<path class="st0" d="M17.5,23.9l-1.1-2.1l1-2.2l-1-0.3l-1.2-1.2l-2.6-0.6l-0.9-1.8v1.1h-0.4l-2.3-3.1v-2.5L7.4,8.5L4.8,9H3
			L2.2,8.4l1.1-0.9L2.2,7.8c-1.4,2.3-2.2,5-2.2,7.9c0,8.7,7,15.7,15.7,15.7c0.7,0,1.3-0.1,2-0.1l-0.2-1.9c0,0,0.7-2.8,0.7-2.9
			C18.2,26.4,17.5,23.9,17.5,23.9z"/>
		<path class="st0" d="M5.8,5.1l2.8-0.4L9.9,4l1.4,0.4l2.3-0.1L14.5,3l1.2,0.2l2.8-0.3l0.8-0.9l1.1-0.7l1.5,0.2l0.6-0.1
			c-2-1-4.3-1.5-6.7-1.5C10.8,0,6.5,2.2,3.6,5.7h0L5.8,5.1z M16.4,1.6L18,0.7l1,0.6l-1.5,1.1l-1.4,0.1l-0.6-0.4L16.4,1.6z M11.6,1.7
			L12.3,2l0.9-0.3l0.5,0.9l-2.1,0.6l-1-0.6C10.6,2.5,11.6,1.9,11.6,1.7z"/>
	</g>
</g>
</svg>
